<mxfile host="65bd71144e">
    <diagram id="R9PMPVqUewTB9rJfQLLW" name="Page-1">
        <mxGraphModel dx="5247" dy="665" grid="0" gridSize="10" guides="1" tooltips="1" connect="1" arrows="1" fold="1" page="1" pageScale="1" pageWidth="4000" pageHeight="4000" math="0" shadow="0">
            <root>
                <mxCell id="0"/>
                <mxCell id="1" parent="0"/>
                <mxCell id="3" value="" style="ellipse;whiteSpace=wrap;html=1;aspect=fixed;" vertex="1" parent="1">
                    <mxGeometry x="360" y="220" width="160" height="160" as="geometry"/>
                </mxCell>
                <mxCell id="5" value="" style="rounded=0;whiteSpace=wrap;html=1;" vertex="1" parent="1">
                    <mxGeometry x="660" y="240" width="120" height="60" as="geometry"/>
                </mxCell>
                <mxCell id="7" value="" style="ellipse;whiteSpace=wrap;html=1;aspect=fixed;" vertex="1" parent="1">
                    <mxGeometry x="-230" y="280" width="160" height="160" as="geometry"/>
                </mxCell>
                <mxCell id="15" value="" style="group" vertex="1" connectable="0" parent="1">
                    <mxGeometry x="-530" y="120" width="230" height="80" as="geometry"/>
                </mxCell>
                <mxCell id="8" value="" style="rounded=1;whiteSpace=wrap;html=1;" vertex="1" parent="15">
                    <mxGeometry width="229.99999999999997" height="80" as="geometry"/>
                </mxCell>
                <mxCell id="10" value="" style="endArrow=none;html=1;exitX=0;exitY=0.25;exitDx=0;exitDy=0;entryX=1;entryY=0.25;entryDx=0;entryDy=0;" edge="1" parent="15" source="8" target="8">
                    <mxGeometry width="50" height="50" relative="1" as="geometry">
                        <mxPoint x="153.33333333333334" y="55.38461538461539" as="sourcePoint"/>
                        <mxPoint x="229.99999999999997" y="24.615384615384617" as="targetPoint"/>
                        <Array as="points"/>
                    </mxGeometry>
                </mxCell>
                <mxCell id="11" value="1.0" style="text;html=1;strokeColor=none;fillColor=none;align=center;verticalAlign=middle;whiteSpace=wrap;rounded=0;" vertex="1" parent="15">
                    <mxGeometry x="61.333333333333336" y="3.076923076923077" width="92" height="18.461538461538463" as="geometry"/>
                </mxCell>
                <mxCell id="52" value="" style="group" vertex="1" connectable="0" parent="1">
                    <mxGeometry x="-3730" y="280" width="120" height="50" as="geometry"/>
                </mxCell>
                <mxCell id="53" value="" style="rounded=0;whiteSpace=wrap;html=1;" vertex="1" parent="52">
                    <mxGeometry width="120" height="50" as="geometry"/>
                </mxCell>
                <mxCell id="54" value="User" style="text;html=1;strokeColor=none;fillColor=none;align=center;verticalAlign=middle;whiteSpace=wrap;rounded=0;" vertex="1" parent="52">
                    <mxGeometry x="30" width="60" height="50" as="geometry"/>
                </mxCell>
                <mxCell id="58" value="" style="group" vertex="1" connectable="0" parent="1">
                    <mxGeometry x="-3480" y="265" width="130" height="70" as="geometry"/>
                </mxCell>
                <mxCell id="55" value="Property Adding Process" style="rounded=1;whiteSpace=wrap;html=1;" vertex="1" parent="58">
                    <mxGeometry width="130" height="70" as="geometry"/>
                </mxCell>
                <mxCell id="57" value="1.0" style="text;html=1;strokeColor=none;fillColor=none;align=center;verticalAlign=middle;whiteSpace=wrap;rounded=0;" vertex="1" parent="58">
                    <mxGeometry x="37.142857142857146" y="2.4999999999999996" width="55.714285714285715" height="15" as="geometry"/>
                </mxCell>
                <mxCell id="56" value="" style="endArrow=none;html=1;exitX=0;exitY=0.25;exitDx=0;exitDy=0;entryX=1;entryY=0.25;entryDx=0;entryDy=0;" edge="1" source="55" target="55" parent="58">
                    <mxGeometry width="50" height="50" relative="1" as="geometry">
                        <mxPoint x="-2897.1428571428573" y="120" as="sourcePoint"/>
                        <mxPoint x="-2850.714285714286" y="95" as="targetPoint"/>
                        <Array as="points"/>
                    </mxGeometry>
                </mxCell>
                <mxCell id="67" value="" style="endArrow=classic;html=1;exitX=1.01;exitY=0.212;exitDx=0;exitDy=0;exitPerimeter=0;" edge="1" parent="1" source="53">
                    <mxGeometry width="50" height="50" relative="1" as="geometry">
                        <mxPoint x="-3560" y="370" as="sourcePoint"/>
                        <mxPoint x="-3480" y="290" as="targetPoint"/>
                    </mxGeometry>
                </mxCell>
                <mxCell id="68" value="Add Property" style="text;html=1;strokeColor=none;fillColor=none;align=center;verticalAlign=middle;whiteSpace=wrap;rounded=0;" vertex="1" parent="1">
                    <mxGeometry x="-3600" y="265" width="80" height="30" as="geometry"/>
                </mxCell>
                <mxCell id="69" value="" style="group" vertex="1" connectable="0" parent="1">
                    <mxGeometry x="-3210" y="270" width="120" height="40" as="geometry"/>
                </mxCell>
                <mxCell id="70" value="" style="endArrow=none;html=1;exitX=0;exitY=1;exitDx=0;exitDy=0;" edge="1" parent="69" source="72">
                    <mxGeometry width="50" height="50" relative="1" as="geometry">
                        <mxPoint x="-50" y="33.333333333333336" as="sourcePoint"/>
                        <mxPoint as="targetPoint"/>
                    </mxGeometry>
                </mxCell>
                <mxCell id="71" value="" style="group" vertex="1" connectable="0" parent="69">
                    <mxGeometry width="120" height="40" as="geometry"/>
                </mxCell>
                <mxCell id="72" value="" style="shape=partialRectangle;whiteSpace=wrap;html=1;left=0;right=0;fillColor=none;" vertex="1" parent="71">
                    <mxGeometry width="120" height="40" as="geometry"/>
                </mxCell>
                <mxCell id="73" value="" style="endArrow=none;html=1;" edge="1" parent="71">
                    <mxGeometry width="50" height="50" relative="1" as="geometry">
                        <mxPoint x="10" y="40" as="sourcePoint"/>
                        <mxPoint x="10" as="targetPoint"/>
                    </mxGeometry>
                </mxCell>
                <mxCell id="74" value="Properties Database" style="text;html=1;strokeColor=none;fillColor=none;align=center;verticalAlign=middle;whiteSpace=wrap;rounded=0;" vertex="1" parent="71">
                    <mxGeometry x="30" y="13.333333333333336" width="60" height="16.666666666666668" as="geometry"/>
                </mxCell>
                <mxCell id="75" value="" style="endArrow=classic;html=1;entryX=-0.003;entryY=0.414;entryDx=0;entryDy=0;entryPerimeter=0;exitX=1.007;exitY=0.313;exitDx=0;exitDy=0;exitPerimeter=0;" edge="1" parent="1" source="55" target="72">
                    <mxGeometry width="50" height="50" relative="1" as="geometry">
                        <mxPoint x="-3350" y="290" as="sourcePoint"/>
                        <mxPoint x="-3270" y="290" as="targetPoint"/>
                    </mxGeometry>
                </mxCell>
                <mxCell id="78" value="" style="group" vertex="1" connectable="0" parent="1">
                    <mxGeometry x="-3480" y="410" width="130" height="70" as="geometry"/>
                </mxCell>
                <mxCell id="79" value="Process Properties Details" style="rounded=1;whiteSpace=wrap;html=1;" vertex="1" parent="78">
                    <mxGeometry width="130" height="70" as="geometry"/>
                </mxCell>
                <mxCell id="80" value="2.0" style="text;html=1;strokeColor=none;fillColor=none;align=center;verticalAlign=middle;whiteSpace=wrap;rounded=0;" vertex="1" parent="78">
                    <mxGeometry x="37.142857142857146" y="2.4999999999999996" width="55.714285714285715" height="15" as="geometry"/>
                </mxCell>
                <mxCell id="81" value="" style="endArrow=none;html=1;exitX=0;exitY=0.25;exitDx=0;exitDy=0;entryX=1;entryY=0.25;entryDx=0;entryDy=0;" edge="1" parent="78" source="79" target="79">
                    <mxGeometry width="50" height="50" relative="1" as="geometry">
                        <mxPoint x="-2897.1428571428573" y="120" as="sourcePoint"/>
                        <mxPoint x="-2850.714285714286" y="95" as="targetPoint"/>
                        <Array as="points"/>
                    </mxGeometry>
                </mxCell>
                <mxCell id="82" value="" style="endArrow=classic;html=1;exitX=0.396;exitY=1.023;exitDx=0;exitDy=0;exitPerimeter=0;entryX=0.5;entryY=0;entryDx=0;entryDy=0;" edge="1" parent="1" source="72" target="79">
                    <mxGeometry width="50" height="50" relative="1" as="geometry">
                        <mxPoint x="-3300" y="320" as="sourcePoint"/>
                        <mxPoint x="-3250" y="270" as="targetPoint"/>
                        <Array as="points">
                            <mxPoint x="-3162" y="360"/>
                            <mxPoint x="-3415" y="360"/>
                        </Array>
                    </mxGeometry>
                </mxCell>
                <mxCell id="83" value="Properties Data" style="text;html=1;align=center;verticalAlign=middle;resizable=0;points=[];autosize=1;strokeColor=none;fillColor=none;" vertex="1" parent="1">
                    <mxGeometry x="-3355" y="335" width="110" height="30" as="geometry"/>
                </mxCell>
                <mxCell id="88" value="" style="group" vertex="1" connectable="0" parent="1">
                    <mxGeometry x="-3730" y="560" width="120" height="40" as="geometry"/>
                </mxCell>
                <mxCell id="89" value="" style="rounded=0;whiteSpace=wrap;html=1;" vertex="1" parent="88">
                    <mxGeometry width="120" height="40" as="geometry"/>
                </mxCell>
                <mxCell id="90" value="Admin" style="text;html=1;strokeColor=none;fillColor=none;align=center;verticalAlign=middle;whiteSpace=wrap;rounded=0;" vertex="1" parent="88">
                    <mxGeometry x="30" width="60" height="40" as="geometry"/>
                </mxCell>
                <mxCell id="91" value="" style="endArrow=classic;html=1;entryX=1;entryY=0;entryDx=0;entryDy=0;exitX=0.154;exitY=1;exitDx=0;exitDy=0;exitPerimeter=0;" edge="1" parent="1" source="79" target="90">
                    <mxGeometry width="50" height="50" relative="1" as="geometry">
                        <mxPoint x="-3740" y="350" as="sourcePoint"/>
                        <mxPoint x="-3610" y="500" as="targetPoint"/>
                        <Array as="points">
                            <mxPoint x="-3460" y="520"/>
                            <mxPoint x="-3520" y="520"/>
                            <mxPoint x="-3640" y="520"/>
                        </Array>
                    </mxGeometry>
                </mxCell>
                <mxCell id="92" value="" style="group" vertex="1" connectable="0" parent="1">
                    <mxGeometry x="-3480" y="550" width="130" height="70" as="geometry"/>
                </mxCell>
                <mxCell id="93" value="Update the status of the properties&amp;nbsp;" style="rounded=1;whiteSpace=wrap;html=1;" vertex="1" parent="92">
                    <mxGeometry width="130" height="70" as="geometry"/>
                </mxCell>
                <mxCell id="94" value="3.0" style="text;html=1;strokeColor=none;fillColor=none;align=center;verticalAlign=middle;whiteSpace=wrap;rounded=0;" vertex="1" parent="92">
                    <mxGeometry x="37.142857142857146" y="2.4999999999999996" width="55.714285714285715" height="15" as="geometry"/>
                </mxCell>
                <mxCell id="95" value="" style="endArrow=none;html=1;exitX=0;exitY=0.25;exitDx=0;exitDy=0;entryX=1;entryY=0.25;entryDx=0;entryDy=0;" edge="1" parent="92" source="93" target="93">
                    <mxGeometry width="50" height="50" relative="1" as="geometry">
                        <mxPoint x="-2897.1428571428573" y="120" as="sourcePoint"/>
                        <mxPoint x="-2850.714285714286" y="95" as="targetPoint"/>
                        <Array as="points"/>
                    </mxGeometry>
                </mxCell>
                <mxCell id="96" value="Get Properties Details" style="text;html=1;align=center;verticalAlign=middle;resizable=0;points=[];autosize=1;strokeColor=none;fillColor=none;" vertex="1" parent="1">
                    <mxGeometry x="-3620" y="490" width="140" height="30" as="geometry"/>
                </mxCell>
                <mxCell id="97" value="" style="endArrow=classic;html=1;exitX=0.333;exitY=0;exitDx=0;exitDy=0;exitPerimeter=0;entryX=0.308;entryY=0.986;entryDx=0;entryDy=0;entryPerimeter=0;" edge="1" parent="1" source="90" target="55">
                    <mxGeometry width="50" height="50" relative="1" as="geometry">
                        <mxPoint x="-3740" y="470" as="sourcePoint"/>
                        <mxPoint x="-3440" y="340" as="targetPoint"/>
                        <Array as="points">
                            <mxPoint x="-3680" y="400"/>
                            <mxPoint x="-3520" y="400"/>
                            <mxPoint x="-3440" y="400"/>
                        </Array>
                    </mxGeometry>
                </mxCell>
                <mxCell id="99" value="Property Accept/Regject" style="text;html=1;align=center;verticalAlign=middle;resizable=0;points=[];autosize=1;strokeColor=none;fillColor=none;" vertex="1" parent="1">
                    <mxGeometry x="-3680" y="410" width="150" height="30" as="geometry"/>
                </mxCell>
                <mxCell id="101" value="" style="endArrow=classic;html=1;entryX=1;entryY=0.75;entryDx=0;entryDy=0;exitX=0;exitY=0.75;exitDx=0;exitDy=0;" edge="1" parent="1" source="55" target="53">
                    <mxGeometry width="50" height="50" relative="1" as="geometry">
                        <mxPoint x="-3710" y="280" as="sourcePoint"/>
                        <mxPoint x="-3660" y="230" as="targetPoint"/>
                    </mxGeometry>
                </mxCell>
                <mxCell id="102" value="Accept/Reject Status" style="text;html=1;align=center;verticalAlign=middle;resizable=0;points=[];autosize=1;strokeColor=none;fillColor=none;" vertex="1" parent="1">
                    <mxGeometry x="-3610" y="320" width="130" height="30" as="geometry"/>
                </mxCell>
                <mxCell id="103" value="" style="endArrow=classic;html=1;exitX=1;exitY=0.25;exitDx=0;exitDy=0;" edge="1" parent="1" source="89">
                    <mxGeometry width="50" height="50" relative="1" as="geometry">
                        <mxPoint x="-3610" y="580" as="sourcePoint"/>
                        <mxPoint x="-3480" y="570" as="targetPoint"/>
                    </mxGeometry>
                </mxCell>
                <mxCell id="104" value="Property Acceptance" style="text;html=1;align=center;verticalAlign=middle;resizable=0;points=[];autosize=1;strokeColor=none;fillColor=none;" vertex="1" parent="1">
                    <mxGeometry x="-3615" y="550" width="130" height="30" as="geometry"/>
                </mxCell>
                <mxCell id="105" value="" style="group" vertex="1" connectable="0" parent="1">
                    <mxGeometry x="-3210" y="560" width="130" height="50" as="geometry"/>
                </mxCell>
                <mxCell id="106" value="" style="endArrow=none;html=1;exitX=0;exitY=1;exitDx=0;exitDy=0;" edge="1" parent="105" source="108">
                    <mxGeometry width="50" height="50" relative="1" as="geometry">
                        <mxPoint x="-50" y="41.66666666666667" as="sourcePoint"/>
                        <mxPoint as="targetPoint"/>
                    </mxGeometry>
                </mxCell>
                <mxCell id="107" value="" style="group" vertex="1" connectable="0" parent="105">
                    <mxGeometry width="130" height="50" as="geometry"/>
                </mxCell>
                <mxCell id="108" value="" style="shape=partialRectangle;whiteSpace=wrap;html=1;left=0;right=0;fillColor=none;" vertex="1" parent="107">
                    <mxGeometry width="120" height="50" as="geometry"/>
                </mxCell>
                <mxCell id="109" value="" style="endArrow=none;html=1;" edge="1" parent="107">
                    <mxGeometry width="50" height="50" relative="1" as="geometry">
                        <mxPoint x="10" y="50" as="sourcePoint"/>
                        <mxPoint x="10" as="targetPoint"/>
                    </mxGeometry>
                </mxCell>
                <mxCell id="110" value="Properties Database" style="text;html=1;strokeColor=none;fillColor=none;align=center;verticalAlign=middle;whiteSpace=wrap;rounded=0;" vertex="1" parent="107">
                    <mxGeometry x="10" y="16.67" width="120" height="20.83" as="geometry"/>
                </mxCell>
                <mxCell id="111" value="" style="endArrow=classic;html=1;entryX=0;entryY=0.25;entryDx=0;entryDy=0;exitX=0.993;exitY=0.339;exitDx=0;exitDy=0;exitPerimeter=0;" edge="1" parent="1" source="93" target="108">
                    <mxGeometry width="50" height="50" relative="1" as="geometry">
                        <mxPoint x="-3350" y="580" as="sourcePoint"/>
                        <mxPoint x="-3300" y="530" as="targetPoint"/>
                    </mxGeometry>
                </mxCell>
                <mxCell id="112" value="Update database" style="text;html=1;align=center;verticalAlign=middle;resizable=0;points=[];autosize=1;strokeColor=none;fillColor=none;" vertex="1" parent="1">
                    <mxGeometry x="-3340" y="550" width="110" height="30" as="geometry"/>
                </mxCell>
                <mxCell id="114" value="" style="group" vertex="1" connectable="0" parent="1">
                    <mxGeometry x="-3480" y="700" width="130" height="70" as="geometry"/>
                </mxCell>
                <mxCell id="115" value="Process the data show in website" style="rounded=1;whiteSpace=wrap;html=1;" vertex="1" parent="114">
                    <mxGeometry width="130" height="70" as="geometry"/>
                </mxCell>
                <mxCell id="116" value="4.0" style="text;html=1;strokeColor=none;fillColor=none;align=center;verticalAlign=middle;whiteSpace=wrap;rounded=0;" vertex="1" parent="114">
                    <mxGeometry x="37.142857142857146" y="2.4999999999999996" width="55.714285714285715" height="15" as="geometry"/>
                </mxCell>
                <mxCell id="117" value="" style="endArrow=none;html=1;exitX=0;exitY=0.25;exitDx=0;exitDy=0;entryX=1;entryY=0.25;entryDx=0;entryDy=0;" edge="1" parent="114" source="115" target="115">
                    <mxGeometry width="50" height="50" relative="1" as="geometry">
                        <mxPoint x="-2897.1428571428573" y="120" as="sourcePoint"/>
                        <mxPoint x="-2850.714285714286" y="95" as="targetPoint"/>
                        <Array as="points"/>
                    </mxGeometry>
                </mxCell>
                <mxCell id="118" value="" style="endArrow=classic;html=1;entryX=0.998;entryY=0.335;entryDx=0;entryDy=0;entryPerimeter=0;exitX=0.529;exitY=1.057;exitDx=0;exitDy=0;exitPerimeter=0;" edge="1" parent="1" source="108" target="115">
                    <mxGeometry width="50" height="50" relative="1" as="geometry">
                        <mxPoint x="-3490" y="670" as="sourcePoint"/>
                        <mxPoint x="-3440" y="620" as="targetPoint"/>
                        <Array as="points">
                            <mxPoint x="-3147" y="723"/>
                        </Array>
                    </mxGeometry>
                </mxCell>
                <mxCell id="119" value="Properties data" style="text;html=1;align=center;verticalAlign=middle;resizable=0;points=[];autosize=1;strokeColor=none;fillColor=none;" vertex="1" parent="1">
                    <mxGeometry x="-3330" y="695" width="100" height="30" as="geometry"/>
                </mxCell>
            </root>
        </mxGraphModel>
    </diagram>
</mxfile>